<svg xmlns="http://www.w3.org/2000/svg" width="30" height="30" viewBox="0 0 30 30"><path id="ac-social-ico_ok" class="ac-social-ico ac-social-ico_ok" d="M490,7937.01a15,15,0,1,1-15,15A15,15,0,0,1,490,7937.01Zm4.678,18.04a7.877,7.877,0,0,1-2.737,1.19l2.544,2.64a1.457,1.457,0,0,1,0,2,1.325,1.325,0,0,1-1.921,0l-2.574-2.68-2.574,2.68a1.323,1.323,0,0,1-1.92,0,1.455,1.455,0,0,1,0-2l2.57-2.67a8.467,8.467,0,0,1-2.8-1.2c-1.323-.89.131-3.28,1.435-2.46a6.235,6.235,0,0,0,3.3,1.06,5.727,5.727,0,0,0,3.276-1.04C494.5,7951.72,496.1,7954.07,494.678,7955.05Zm-4.672-2.75a4.789,4.789,0,1,1,4.6-4.78A4.694,4.694,0,0,1,490.006,7952.3Zm0-6.78a2,2,0,1,0,1.921,2A1.958,1.958,0,0,0,490.006,7945.52Z" transform="translate(-475 -7937)"/></svg>
