<svg xmlns="http://www.w3.org/2000/svg" width="30" height="30" viewBox="0 0 30 30"><path id="ac-social-ico_twi" class="ac-social-ico ac-social-ico_twi" d="M527.5,7937.01a15,15,0,1,1-15,15A15,15,0,0,1,527.5,7937.01Zm7.014,14.33a3.408,3.408,0,0,0,1.988.15,2.636,2.636,0,0,1-2.278.82c-0.736,3.86-5.33,5.84-9.244,5.69a9.057,9.057,0,0,1-6.324-3.11c-0.412-.48.067-0.23,0.191-0.13,1.861,1.63,4.643,1.07,6.21-.36-1.49-.02-1.643-1.05-0.592-1.49a2.311,2.311,0,0,1-2.045-.83c-0.111-.12-0.1-0.22.058-0.35a1.631,1.631,0,0,1,.955-0.37,2.191,2.191,0,0,1-1.873-1.58c-0.057-.24.039-0.21,1.032-0.34a2,2,0,0,1-1.471-1.89c-0.019-.32-0.087-0.32,1.146.2,3.989,1.68,4.433,2.25,4.834,2.58a10.49,10.49,0,0,1,2.064-3.55c0.726-.76.815-0.76,0.649-0.26,1.529-.89,1.319-0.41.936-0.06,1.434-.53,1.243.19,0.765,0.37a7.684,7.684,0,0,0-1.032.33,3.957,3.957,0,0,1,3.77,3.19,2.8,2.8,0,0,0,2.077-.11C536.275,7950.69,535.7,7951.23,534.514,7951.34Z" transform="translate(-512.5 -7937)"/></svg>
