<svg version="1.1" id="ac-up-icosvg" xmlns="http://www.w3.org/2000/svg" xmlns:xlink="http://www.w3.org/1999/xlink" x="0px" y="0px"
	 viewBox="0 0 48 48" style="enable-background:new 0 0 48 48;" xml:space="preserve" width="48px" height="48px">
	 <path class="ac-totop" style="fill-rule:evenodd;clip-rule:evenodd;" d="M44,0H4c-2.2,0-4,1.8-4,4V44c0,2.2,1.8,4,4,4H44c2.2,0,4-1.8,4-4V4
	C48,1.799,46.201,0,44,0L44,0z M13.586,26.586l9-9c0.781-0.781,2.047-0.781,2.828,0l9,9c0.781,0.781,0.781,2.047,0,2.828
	c-0.781,0.781-2.047,0.781-2.828,0L24,21.827l-7.586,7.586c-0.781,0.781-2.047,0.781-2.828,0
	C12.806,28.633,12.806,27.367,13.586,26.586z"/>
</svg>
