<svg id="truck" xmlns="http://www.w3.org/2000/svg" width="100" height="100" viewBox="0 0 100 100"><defs><style>.work2-1{fill:#b0b6bb}.work2-2{fill:#ebebeb}.work2-2,.work2-3,.work2-4{fill-rule:evenodd}.work2-3{fill:#38454f}.work2-4{fill:#f46470}</style></defs><path id="_8" data-name="8" class="work2-1" d="M10 15h45a5 5 0 0 1 5 5v39H5V20a5 5 0 0 1 5-5z"/><path id="_6" data-name="6" class="work2-2" d="M1016 363h8a3 3 0 0 1 3 3v8a3 3 0 0 1-3 3h-8a3 3 0 0 1-3-3v-8a3 3 0 0 1 3-3zm48 0h8a3 3 0 0 1 3 3v8a3 3 0 0 1-3 3h-8a3 3 0 0 1-3-3v-8a3 3 0 0 1 3-3z" transform="translate(-992 -295)"/><path id="_4" data-name="4" class="work2-3" d="M1020 360a10 10 0 1 1-10 10 10 10 0 0 1 10-10zm0 5a5 5 0 1 1-5 5 5 5 0 0 1 5-5zm0 3a2 2 0 1 1-2 2 2 2 0 0 1 2-2zm48-8a10 10 0 1 1-10 10 10 10 0 0 1 10-10zm0 5a5 5 0 1 1-5 5 5 5 0 0 1 5-5zm0 3a2 2 0 1 1-2 2 2 2 0 0 1 2-2z" transform="translate(-992 -295)"/><path id="_3" data-name="3" class="work2-3" d="M1033.67 367a13.994 13.994 0 0 0-27.34 0H997v-13h55v13h-18.33z" transform="translate(-992 -295)"/><path id="_2" data-name="2" class="work2-4" d="M1084 367h-2.33a13.994 13.994 0 0 0-27.34 0H1052v-42a3 3 0 0 1 3-3h16a6.556 6.556 0 0 1 5 3l11 19v20a3 3 0 0 1-3 3z" transform="translate(-992 -295)"/><path id="_1" data-name="1" class="work2-2" d="M1058 328h12l10 16h-22v-16z" transform="translate(-992 -295)"/></svg>
