<svg id="paint" xmlns="http://www.w3.org/2000/svg" width="100" height="100" viewBox="0 0 100 100"><defs><style>.work4-1{fill:#ebebeb}.work4-2{fill:#41b3e2}.work4-3{fill:#788d9a}.work4-4{fill:#feba42}.work4-5{fill:#e39a61}.work4-6,.work4-9{fill:#f46470}.work4-7{fill:#8fcf61}.work4-8{fill:#b0b6bb}.work4-10,.work4-8,.work4-9{fill-rule:evenodd}.work4-10{fill:#38454f}</style></defs><rect id="_9" data-name="9" class="work4-1" x="10" y="10" width="50" height="80" rx="3" ry="3"/><circle id="_8" data-name="8" class="work4-2" cx="24" cy="27" r="8"/><circle id="_7" data-name="7" class="work4-3" cx="46" cy="27" r="8"/><circle id="_6" data-name="6" class="work4-4" cx="24" cy="73" r="8"/><circle id="_5" data-name="5" class="work4-5" cx="46" cy="73" r="8"/><circle id="_4" data-name="4" class="work4-6" cx="24" cy="50" r="8"/><circle id="_3" data-name="3" class="work4-7" cx="46" cy="50" r="8"/><path id="_2" data-name="2" class="work4-8" d="M1643.17 354a62.729 62.729 0 0 1 2.83-15h12a62.729 62.729 0 0 1 2.83 15h-17.66z" transform="translate(-1572 -296)"/><path id="_2-2" data-name="2" class="work4-9" d="M1660.83 354c.1 1.468.17 2.964.17 4.5 0 15.188-4.03 27.5-9 27.5s-9-12.312-9-27.5c0-1.536.07-3.032.17-4.5h17.66z" transform="translate(-1572 -296)"/><path id="_1" data-name="1" class="work4-10" d="M1658 339h-12c-2.92-2.172-5.05-4.26-5-11 .06-8.341 9.32-11.111 6-22 0 0 15 8.954 15 20 0 6.739-1.41 10.828-4 13z" transform="translate(-1572 -296)"/></svg>
