<svg id="site" xmlns="http://www.w3.org/2000/svg" width="100" height="100" viewBox="0 0 100 100"><defs><style>.work3-1{fill:#38454f}.work3-1,.work3-2,.work3-4,.work3-5{fill-rule:evenodd}.work3-2{fill:#ebebeb}.work3-3{fill:#546a79}.work3-4{fill:#f46470}.work3-5{fill:#b0b6bb}.work3-6{fill:#ff6c54}.work3-7{fill:#feba42}.work3-8{fill:#8fcf61}</style></defs><path id="_8" data-name="8" class="work3-1" d="M1292 316v-7a3 3 0 0 1 3-3h74a3 3 0 0 1 3 3v7h-80z" transform="translate(-1282 -296)"/><path id="_7" data-name="7" class="work3-2" d="M1372 316v67a3 3 0 0 1-3 3h-74a3 3 0 0 1-3-3v-67h80z" transform="translate(-1282 -296)"/><rect id="_6" data-name="6" class="work3-3" x="34" y="12" width="52" height="6" rx="2" ry="2"/><path id="_5" data-name="5" class="work3-4" d="M1304 322h56a2 2 0 0 1 2 2v16a2 2 0 0 1-2 2h-56a2 2 0 0 1-2-2v-16a2 2 0 0 1 2-2zm0 26h24a2 2 0 0 1 2 2v7a2 2 0 0 1-2 2h-24a2 2 0 0 1-2-2v-7a2 2 0 0 1 2-2zm32 0h24a2 2 0 0 1 2 2v7a2 2 0 0 1-2 2h-24a2 2 0 0 1-2-2v-7a2 2 0 0 1 2-2z" transform="translate(-1282 -296)"/><path id="_4" data-name="4" class="work3-5" d="M1303.5 363h25a1.5 1.5 0 0 1 0 3h-25a1.5 1.5 0 0 1 0-3zm0 5h25a1.5 1.5 0 0 1 0 3h-25a1.5 1.5 0 0 1 0-3zm0 5h15a1.5 1.5 0 0 1 0 3h-15a1.5 1.5 0 0 1 0-3zm32-10h25a1.5 1.5 0 0 1 0 3h-25a1.5 1.5 0 0 1 0-3zm0 5h25a1.5 1.5 0 0 1 0 3h-25a1.5 1.5 0 0 1 0-3zm0 5h15a1.5 1.5 0 0 1 0 3h-15a1.5 1.5 0 0 1 0-3z" transform="translate(-1282 -296)"/><circle id="_3" data-name="3" class="work3-6" cx="16" cy="15" r="2"/><circle id="_2" data-name="2" class="work3-7" cx="22" cy="15" r="2"/><circle id="_1" data-name="1" class="work3-8" cx="28" cy="15" r="2"/></svg>
